<mxfile host="app.diagrams.net" modified="2023-10-10T12:31:20.221Z" agent="Mozilla/5.0 (Windows NT 10.0; Win64; x64) AppleWebKit/537.36 (KHTML, like Gecko) Chrome/117.0.0.0 Safari/537.36" etag="8uXO2un0rQ8jy6n6Nl7h" version="22.0.4" type="device">
  <diagram name="Page-1" id="1aujs3gHHfBdvICl70sx">
    <mxGraphModel dx="1221" dy="1791" grid="1" gridSize="10" guides="1" tooltips="1" connect="1" arrows="1" fold="1" page="1" pageScale="1" pageWidth="827" pageHeight="1169" math="0" shadow="0">
      <root>
        <mxCell id="0" />
        <mxCell id="1" parent="0" />
        <mxCell id="8icnw4wqjDaG0Yuw5UKk-14" value="" style="rounded=0;whiteSpace=wrap;html=1;fillColor=#e1d5e7;strokeColor=#9673a6;" parent="1" vertex="1">
          <mxGeometry x="50" y="-50" width="500" height="800" as="geometry" />
        </mxCell>
        <mxCell id="8icnw4wqjDaG0Yuw5UKk-16" value="" style="group" parent="1" vertex="1" connectable="0">
          <mxGeometry x="60" y="-30" width="700" height="443.33333333333337" as="geometry" />
        </mxCell>
        <mxCell id="8icnw4wqjDaG0Yuw5UKk-1" value="" style="rounded=0;whiteSpace=wrap;html=1;fillColor=#dae8fc;strokeColor=#6c8ebf;" parent="8icnw4wqjDaG0Yuw5UKk-16" vertex="1">
          <mxGeometry x="-1" y="19.43" width="481" height="340.57" as="geometry" />
        </mxCell>
        <mxCell id="8icnw4wqjDaG0Yuw5UKk-2" value="&lt;div style=&quot;text-align: justify; line-height: 150%;&quot;&gt;&lt;b style=&quot;background-color: initial;&quot;&gt;length of phrase (4 bytes)&lt;/b&gt;&lt;/div&gt;&lt;div style=&quot;text-align: justify; line-height: 150%;&quot;&gt;&lt;b style=&quot;background-color: initial;&quot;&gt;type: &lt;/b&gt;&lt;span style=&quot;background-color: initial;&quot;&gt;int&amp;nbsp; &amp;nbsp;&lt;b&gt;pos:&lt;/b&gt; 0&lt;/span&gt;&lt;/div&gt;&lt;div style=&quot;text-align: justify; line-height: 150%;&quot;&gt;&lt;b style=&quot;font-weight: bold; background-color: initial;&quot;&gt;binary:&amp;nbsp;&lt;/b&gt;0x00 0x00 0x27 0x91&lt;/div&gt;&lt;div style=&quot;text-align: justify; line-height: 150%;&quot;&gt;&lt;b style=&quot;font-weight: bold; background-color: initial;&quot;&gt;value: &lt;/b&gt;&lt;span style=&quot;background-color: initial;&quot;&gt;10129&amp;nbsp;&lt;/span&gt;&lt;/div&gt;" style="rounded=0;whiteSpace=wrap;html=1;fillColor=#dae8fc;strokeColor=#6c8ebf;align=center;" parent="8icnw4wqjDaG0Yuw5UKk-16" vertex="1">
          <mxGeometry y="19.43" width="190" height="80.57" as="geometry" />
        </mxCell>
        <mxCell id="8icnw4wqjDaG0Yuw5UKk-3" value="&lt;b&gt;&lt;font style=&quot;font-size: 25px;&quot;&gt;...&lt;/font&gt;&lt;/b&gt;" style="rounded=0;whiteSpace=wrap;html=1;fillColor=#d5e8d4;strokeColor=#82b366;" parent="8icnw4wqjDaG0Yuw5UKk-16" vertex="1">
          <mxGeometry x="8.73" y="284" width="461.54" height="64.76" as="geometry" />
        </mxCell>
        <mxCell id="8icnw4wqjDaG0Yuw5UKk-6" value="&lt;div style=&quot;text-align: justify; line-height: 150%;&quot;&gt;&lt;b style=&quot;background-color: initial;&quot;&gt;word (18 bytes)&lt;/b&gt;&lt;/div&gt;&lt;div style=&quot;text-align: justify; line-height: 150%;&quot;&gt;&lt;b style=&quot;font-weight: bold; background-color: initial;&quot;&gt;type: &lt;/b&gt;&lt;span style=&quot;background-color: initial;&quot;&gt;string&amp;nbsp; &amp;nbsp;&lt;b&gt;pos:&lt;/b&gt; 5&lt;/span&gt;&lt;/div&gt;&lt;div style=&quot;text-align: justify; line-height: 150%;&quot;&gt;&lt;b style=&quot;font-weight: bold; background-color: initial;&quot;&gt;binary:&amp;nbsp;&lt;/b&gt;0x00 0x63 ... 0x00 0x6F&lt;/div&gt;&lt;div style=&quot;text-align: justify; line-height: 150%;&quot;&gt;&lt;b style=&quot;font-weight: bold; background-color: initial;&quot;&gt;value:&amp;nbsp;&lt;/b&gt;call.info&lt;/div&gt;" style="rounded=0;whiteSpace=wrap;html=1;fillColor=#d5e8d4;strokeColor=#82b366;align=center;" parent="8icnw4wqjDaG0Yuw5UKk-16" vertex="1">
          <mxGeometry x="198.46" y="107.57" width="271.54" height="83.43" as="geometry" />
        </mxCell>
        <mxCell id="8icnw4wqjDaG0Yuw5UKk-15" value="&lt;b&gt;Phrase #1&lt;/b&gt;" style="text;html=1;strokeColor=none;fillColor=none;align=center;verticalAlign=middle;whiteSpace=wrap;rounded=0;" parent="8icnw4wqjDaG0Yuw5UKk-16" vertex="1">
          <mxGeometry x="370.00461538461525" y="-20" width="134.6153846153846" height="113.33333333333334" as="geometry" />
        </mxCell>
        <mxCell id="8icnw4wqjDaG0Yuw5UKk-49" value="&lt;div style=&quot;text-align: justify; line-height: 150%;&quot;&gt;&lt;span style=&quot;background-color: initial;&quot;&gt;length of word(1-4 bytes)&lt;/span&gt;&lt;/div&gt;&lt;div style=&quot;text-align: justify; line-height: 150%;&quot;&gt;&lt;span style=&quot;background-color: initial;&quot;&gt;type: &lt;/span&gt;&lt;span style=&quot;background-color: initial;&quot;&gt;varint&amp;nbsp; &amp;nbsp;pos: &lt;span style=&quot;font-weight: normal;&quot;&gt;4&lt;/span&gt;&lt;/span&gt;&lt;/div&gt;&lt;div style=&quot;text-align: justify; line-height: 150%;&quot;&gt;&lt;span style=&quot;background-color: initial;&quot;&gt;binary:&amp;nbsp;&lt;/span&gt;&lt;span style=&quot;font-weight: normal;&quot;&gt;0x09&lt;/span&gt;&lt;/div&gt;&lt;div style=&quot;text-align: justify; line-height: 150%;&quot;&gt;&lt;span style=&quot;background-color: initial;&quot;&gt;value: &lt;span style=&quot;font-weight: normal;&quot;&gt;9&lt;/span&gt;&lt;/span&gt;&lt;span style=&quot;background-color: initial;&quot;&gt;&amp;nbsp;&lt;/span&gt;&lt;/div&gt;" style="rounded=0;whiteSpace=wrap;html=1;fillColor=#A6B5A5;strokeColor=#6c8ebf;align=center;fontStyle=1" parent="8icnw4wqjDaG0Yuw5UKk-16" vertex="1">
          <mxGeometry x="8.46" y="107.57" width="190" height="83.43" as="geometry" />
        </mxCell>
        <mxCell id="8icnw4wqjDaG0Yuw5UKk-17" value="&lt;b&gt;&lt;font style=&quot;font-size: 17px;&quot;&gt;Dictionary Stream&lt;/font&gt;&lt;/b&gt;" style="text;html=1;strokeColor=none;fillColor=none;align=center;verticalAlign=middle;whiteSpace=wrap;rounded=0;" parent="8icnw4wqjDaG0Yuw5UKk-16" vertex="1">
          <mxGeometry x="144.5" y="-14.57" width="190" height="30" as="geometry" />
        </mxCell>
        <mxCell id="8icnw4wqjDaG0Yuw5UKk-47" value="&lt;font size=&quot;1&quot; style=&quot;&quot;&gt;&lt;b style=&quot;font-size: 26px;&quot;&gt;...&lt;/b&gt;&lt;/font&gt;" style="rounded=0;whiteSpace=wrap;html=1;fillColor=#dae8fc;strokeColor=#6c8ebf;" parent="1" vertex="1">
          <mxGeometry x="60" y="685" width="480" height="60" as="geometry" />
        </mxCell>
        <mxCell id="8icnw4wqjDaG0Yuw5UKk-48" value="&lt;b style=&quot;border-color: var(--border-color);&quot;&gt;Phrase #n&lt;/b&gt;" style="text;html=1;strokeColor=none;fillColor=none;align=center;verticalAlign=middle;whiteSpace=wrap;rounded=0;" parent="1" vertex="1">
          <mxGeometry x="470" y="685" width="60" height="30" as="geometry" />
        </mxCell>
        <mxCell id="8icnw4wqjDaG0Yuw5UKk-54" value="&lt;div style=&quot;text-align: justify; line-height: 150%;&quot;&gt;&lt;b style=&quot;background-color: initial;&quot;&gt;word (16 bytes)&lt;/b&gt;&lt;/div&gt;&lt;div style=&quot;text-align: justify; line-height: 150%;&quot;&gt;&lt;b style=&quot;font-weight: bold; background-color: initial;&quot;&gt;type: &lt;/b&gt;&lt;span style=&quot;background-color: initial;&quot;&gt;string&amp;nbsp; &amp;nbsp;&lt;b&gt;pos:&lt;/b&gt;&amp;nbsp;24&lt;/span&gt;&lt;/div&gt;&lt;div style=&quot;text-align: justify; line-height: 150%;&quot;&gt;&lt;b style=&quot;font-weight: bold; background-color: initial;&quot;&gt;binary:&amp;nbsp;&lt;/b&gt;0x00 0x63 ... 0x00 0x6F&lt;/div&gt;&lt;div style=&quot;text-align: justify; line-height: 150%;&quot;&gt;&lt;b style=&quot;font-weight: bold; background-color: initial;&quot;&gt;value:&amp;nbsp;&lt;/b&gt;call.info&lt;/div&gt;" style="rounded=0;whiteSpace=wrap;html=1;fillColor=#d5e8d4;strokeColor=#82b366;align=center;" parent="1" vertex="1">
          <mxGeometry x="258.46000000000004" y="164.57" width="271.54" height="83.43" as="geometry" />
        </mxCell>
        <mxCell id="8icnw4wqjDaG0Yuw5UKk-55" value="&lt;div style=&quot;text-align: justify; line-height: 150%;&quot;&gt;&lt;b style=&quot;background-color: initial;&quot;&gt;length of word(1-4 bytes)&lt;/b&gt;&lt;/div&gt;&lt;div style=&quot;text-align: justify; line-height: 150%;&quot;&gt;&lt;b style=&quot;background-color: initial;&quot;&gt;type: &lt;/b&gt;&lt;span style=&quot;background-color: initial;&quot;&gt;varint &lt;b&gt;pos:&lt;/b&gt; 23&lt;/span&gt;&lt;/div&gt;&lt;div style=&quot;text-align: justify; line-height: 150%;&quot;&gt;&lt;b style=&quot;font-weight: bold; background-color: initial;&quot;&gt;binary:&amp;nbsp;&lt;/b&gt;0x08&lt;/div&gt;&lt;div style=&quot;text-align: justify; line-height: 150%;&quot;&gt;&lt;b style=&quot;font-weight: bold; background-color: initial;&quot;&gt;value: &lt;/b&gt;&lt;span style=&quot;background-color: initial;&quot;&gt;8&lt;/span&gt;&lt;/div&gt;" style="rounded=0;whiteSpace=wrap;html=1;fillColor=#A6B5A5;strokeColor=#6c8ebf;align=center;" parent="1" vertex="1">
          <mxGeometry x="68.46000000000001" y="164.57" width="190" height="83.43" as="geometry" />
        </mxCell>
        <mxCell id="8icnw4wqjDaG0Yuw5UKk-56" value="" style="rounded=0;whiteSpace=wrap;html=1;fillColor=#dae8fc;strokeColor=#6c8ebf;" parent="1" vertex="1">
          <mxGeometry x="60" y="338" width="481" height="340.57" as="geometry" />
        </mxCell>
        <mxCell id="8icnw4wqjDaG0Yuw5UKk-57" value="&lt;div style=&quot;text-align: justify; line-height: 150%;&quot;&gt;&lt;b style=&quot;background-color: initial;&quot;&gt;length of phrase (4 bytes)&lt;/b&gt;&lt;/div&gt;&lt;div style=&quot;text-align: justify; line-height: 150%;&quot;&gt;&lt;b style=&quot;background-color: initial;&quot;&gt;type: &lt;/b&gt;&lt;span style=&quot;background-color: initial;&quot;&gt;int&amp;nbsp; &amp;nbsp;&lt;b&gt;pos:&lt;/b&gt;&amp;nbsp;10133&lt;/span&gt;&lt;/div&gt;&lt;div style=&quot;text-align: justify; line-height: 150%;&quot;&gt;&lt;b style=&quot;font-weight: bold; background-color: initial;&quot;&gt;binary:&amp;nbsp;&lt;/b&gt;0x00 0x00 0x27 0x4f&lt;/div&gt;&lt;div style=&quot;text-align: justify; line-height: 150%;&quot;&gt;&lt;b style=&quot;font-weight: bold; background-color: initial;&quot;&gt;value: &lt;/b&gt;&lt;span style=&quot;background-color: initial;&quot;&gt;10063&amp;nbsp;&lt;/span&gt;&lt;/div&gt;" style="rounded=0;whiteSpace=wrap;html=1;fillColor=#dae8fc;strokeColor=#6c8ebf;align=center;" parent="1" vertex="1">
          <mxGeometry x="61" y="338" width="190" height="80.57" as="geometry" />
        </mxCell>
        <mxCell id="8icnw4wqjDaG0Yuw5UKk-58" value="&lt;b&gt;&lt;font style=&quot;font-size: 25px;&quot;&gt;...&lt;/font&gt;&lt;/b&gt;" style="rounded=0;whiteSpace=wrap;html=1;fillColor=#d5e8d4;strokeColor=#82b366;" parent="1" vertex="1">
          <mxGeometry x="69.73000000000002" y="603.5699999999999" width="461.54" height="64.76" as="geometry" />
        </mxCell>
        <mxCell id="8icnw4wqjDaG0Yuw5UKk-59" value="&lt;div style=&quot;text-align: justify; line-height: 150%;&quot;&gt;&lt;b style=&quot;background-color: initial;&quot;&gt;word (354 bytes)&lt;/b&gt;&lt;/div&gt;&lt;div style=&quot;text-align: justify; line-height: 150%;&quot;&gt;&lt;b style=&quot;font-weight: bold; background-color: initial;&quot;&gt;type: &lt;/b&gt;&lt;span style=&quot;background-color: initial;&quot;&gt;string&amp;nbsp; &amp;nbsp;&lt;b&gt;pos:&lt;/b&gt;&amp;nbsp;10138&lt;/span&gt;&lt;/div&gt;&lt;div style=&quot;text-align: justify; line-height: 150%;&quot;&gt;&lt;b style=&quot;font-weight: bold; background-color: initial;&quot;&gt;binary:&amp;nbsp;&lt;/b&gt;0x01 0x00 ... 0x00 0x6F&lt;/div&gt;&lt;div style=&quot;text-align: justify; line-height: 150%;&quot;&gt;&lt;b style=&quot;font-weight: bold; background-color: initial;&quot;&gt;value:&amp;nbsp;&lt;/b&gt;java.lang.String com.......&lt;/div&gt;" style="rounded=0;whiteSpace=wrap;html=1;fillColor=#d5e8d4;strokeColor=#82b366;align=center;" parent="1" vertex="1">
          <mxGeometry x="259.46000000000004" y="426.14" width="271.54" height="83.43" as="geometry" />
        </mxCell>
        <mxCell id="8icnw4wqjDaG0Yuw5UKk-60" value="&lt;div style=&quot;text-align: justify; line-height: 150%;&quot;&gt;&lt;span style=&quot;background-color: initial;&quot;&gt;length of word(1-4 bytes)&lt;/span&gt;&lt;/div&gt;&lt;div style=&quot;text-align: justify; line-height: 150%;&quot;&gt;&lt;span style=&quot;background-color: initial;&quot;&gt;type: &lt;/span&gt;&lt;span style=&quot;background-color: initial;&quot;&gt;varint&amp;nbsp; &amp;nbsp;pos: &lt;span style=&quot;font-weight: 400;&quot;&gt;10137&lt;/span&gt;&lt;/span&gt;&lt;/div&gt;&lt;div style=&quot;text-align: justify; line-height: 150%;&quot;&gt;&lt;span style=&quot;background-color: initial;&quot;&gt;binary:&amp;nbsp;&lt;/span&gt;&lt;span style=&quot;font-weight: normal;&quot;&gt;0xb1&lt;/span&gt;&lt;/div&gt;&lt;div style=&quot;text-align: justify; line-height: 150%;&quot;&gt;&lt;span style=&quot;background-color: initial;&quot;&gt;value: &lt;span style=&quot;font-weight: 400;&quot;&gt;177&lt;/span&gt;&lt;/span&gt;&lt;/div&gt;" style="rounded=0;whiteSpace=wrap;html=1;fillColor=#A6B5A5;strokeColor=#6c8ebf;align=center;fontStyle=1" parent="1" vertex="1">
          <mxGeometry x="69.46000000000004" y="426.14" width="190" height="83.43" as="geometry" />
        </mxCell>
        <mxCell id="8icnw4wqjDaG0Yuw5UKk-61" value="&lt;div style=&quot;text-align: justify; line-height: 150%;&quot;&gt;&lt;b style=&quot;background-color: initial;&quot;&gt;word (484 bytes)&lt;/b&gt;&lt;/div&gt;&lt;div style=&quot;text-align: justify; line-height: 150%;&quot;&gt;&lt;b style=&quot;font-weight: bold; background-color: initial;&quot;&gt;type: &lt;/b&gt;&lt;span style=&quot;background-color: initial;&quot;&gt;string&amp;nbsp; &amp;nbsp;&lt;b&gt;pos:&lt;/b&gt;&amp;nbsp;10494&lt;/span&gt;&lt;/div&gt;&lt;div style=&quot;text-align: justify; line-height: 150%;&quot;&gt;&lt;b style=&quot;font-weight: bold; background-color: initial;&quot;&gt;binary:&amp;nbsp;&lt;/b&gt;0x01 0x00 ... 0x00 0x6F&lt;/div&gt;&lt;div style=&quot;text-align: justify; line-height: 150%;&quot;&gt;&lt;b style=&quot;font-weight: bold; background-color: initial;&quot;&gt;value:&amp;nbsp;&lt;/b&gt;&lt;span style=&quot;background-color: initial;&quot;&gt;com.netcracker.profiler ....&lt;/span&gt;&lt;/div&gt;" style="rounded=0;whiteSpace=wrap;html=1;fillColor=#d5e8d4;strokeColor=#82b366;align=center;" parent="1" vertex="1">
          <mxGeometry x="259.46000000000004" y="515.14" width="271.54" height="83.43" as="geometry" />
        </mxCell>
        <mxCell id="8icnw4wqjDaG0Yuw5UKk-62" value="&lt;div style=&quot;text-align: justify; line-height: 150%;&quot;&gt;&lt;b style=&quot;background-color: initial;&quot;&gt;length of word(1-4 bytes)&lt;/b&gt;&lt;/div&gt;&lt;div style=&quot;text-align: justify; line-height: 150%;&quot;&gt;&lt;b style=&quot;background-color: initial;&quot;&gt;type: &lt;/b&gt;&lt;span style=&quot;background-color: initial;&quot;&gt;varint &lt;b&gt;pos:&lt;/b&gt;&amp;nbsp;10493&lt;/span&gt;&lt;/div&gt;&lt;div style=&quot;text-align: justify; line-height: 150%;&quot;&gt;&lt;b style=&quot;font-weight: bold; background-color: initial;&quot;&gt;binary:&amp;nbsp;&lt;/b&gt;0xf2&lt;/div&gt;&lt;div style=&quot;text-align: justify; line-height: 150%;&quot;&gt;&lt;b style=&quot;font-weight: bold; background-color: initial;&quot;&gt;value: &lt;/b&gt;&lt;span style=&quot;background-color: initial;&quot;&gt;242&lt;/span&gt;&lt;/div&gt;" style="rounded=0;whiteSpace=wrap;html=1;fillColor=#A6B5A5;strokeColor=#6c8ebf;align=center;" parent="1" vertex="1">
          <mxGeometry x="69.46000000000004" y="515.14" width="190" height="83.43" as="geometry" />
        </mxCell>
        <mxCell id="8icnw4wqjDaG0Yuw5UKk-65" value="&lt;b&gt;Phrase #2&lt;/b&gt;" style="text;html=1;strokeColor=none;fillColor=none;align=center;verticalAlign=middle;whiteSpace=wrap;rounded=0;" parent="1" vertex="1">
          <mxGeometry x="471.27" y="338" width="60" height="30" as="geometry" />
        </mxCell>
      </root>
    </mxGraphModel>
  </diagram>
</mxfile>
